<svg xmlns="http://www.w3.org/2000/svg" width="600" height="500" viewBox="0 0 600 500">
  <defs>
    <linearGradient id="grad1" x1="0%" y1="0%" x2="100%" y2="0%">
      <stop offset="0%" style="stop-color:#4361ee;stop-opacity:1" />
      <stop offset="100%" style="stop-color:#f72585;stop-opacity:1" />
    </linearGradient>
  </defs>
  <g transform="translate(50, 50)">
    <!-- Laptop Base -->
    <rect x="150" y="200" width="300" height="20" rx="5" fill="#333" />
    <rect x="170" y="50" width="260" height="150" rx="10" fill="#444" />
    <rect x="180" y="60" width="240" height="130" rx="5" fill="#f8f9fa" />
    
    <!-- Chat Bubbles -->
    <rect x="200" y="80" width="120" height="40" rx="10" fill="#e6e6e6" />
    <rect x="280" y="130" width="120" height="40" rx="10" fill="#4361ee" />
    
    <!-- Robot -->
    <circle cx="400" cy="300" r="40" fill="url(#grad1)" />
    <rect x="380" y="270" width="40" height="30" rx="5" fill="#fff" />
    <circle cx="390" cy="280" r="5" fill="#333" />
    <circle cx="410" cy="280" r="5" fill="#333" />
    <path d="M390 295 Q400 305 410 295" stroke="#333" stroke-width="2" fill="none" />
    
    <!-- Person -->
    <circle cx="100" cy="300" r="40" fill="#f72585" opacity="0.8" />
    <circle cx="100" cy="260" r="25" fill="#f72585" />
    <rect x="80" y="270" width="40" height="30" rx="5" fill="#fff" />
    <circle cx="90" cy="280" r="5" fill="#333" />
    <circle cx="110" cy="280" r="5" fill="#333" />
    <path d="M90 295 Q100 300 110 295" stroke="#333" stroke-width="2" fill="none" />
    
    <!-- Connection Lines -->
    <path d="M150 300 Q250 250 350 300" stroke="#4361ee" stroke-width="3" fill="none" stroke-dasharray="5,5" />
    
    <!-- AI Brain -->
    <circle cx="250" cy="150" r="30" fill="url(#grad1)" opacity="0.7" />
    <path d="M235 150 Q250 130 265 150" stroke="#fff" stroke-width="2" fill="none" />
    <path d="M235 150 Q250 170 265 150" stroke="#fff" stroke-width="2" fill="none" />
    <path d="M250 135 L250 165" stroke="#fff" stroke-width="2" />
    <path d="M240 140 L260 160" stroke="#fff" stroke-width="2" />
    <path d="M240 160 L260 140" stroke="#fff" stroke-width="2" />
    
    <!-- Decorative Elements -->
    <circle cx="450" cy="100" r="15" fill="#4361ee" opacity="0.5" />
    <circle cx="470" cy="130" r="10" fill="#f72585" opacity="0.5" />
    <circle cx="430" cy="150" r="8" fill="#4361ee" opacity="0.5" />
    
    <circle cx="50" cy="100" r="15" fill="#f72585" opacity="0.5" />
    <circle cx="30" cy="130" r="10" fill="#4361ee" opacity="0.5" />
    <circle cx="70" cy="150" r="8" fill="#f72585" opacity="0.5" />
  </g>
</svg>
